<svg xmlns="http://www.w3.org/2000/svg" viewBox="0 0 25.76 25.76"><defs><style>.cls-1{fill:#fff;}</style></defs><title>avatar</title><g id="Layer_2" data-name="Layer 2"><g id="Layer_1-2" data-name="Layer 1"><path class="cls-1" d="M12.88,25.76A12.88,12.88,0,1,1,25.76,12.88,12.9,12.9,0,0,1,12.88,25.76ZM12.88,1A11.88,11.88,0,1,0,24.76,12.88,11.9,11.9,0,0,0,12.88,1Z"/><path class="cls-1" d="M12.86,22.76A10.62,10.62,0,0,1,4,18c-.13-.18-.23-.34-.08-.59a6.27,6.27,0,0,1,4.51-3.27.82.82,0,0,1,.53.11,6.8,6.8,0,0,0,7.85,0,.69.69,0,0,1,.45-.11,6.41,6.41,0,0,1,4.52,3.2.53.53,0,0,1,0,.66A10.69,10.69,0,0,1,12.86,22.76Z"/><path class="cls-1" d="M12.88,3a5,5,0,1,1-5,5A5,5,0,0,1,12.88,3Z"/></g></g></svg>