<svg xmlns="http://www.w3.org/2000/svg" viewBox="0 0 44.37 21.17"><defs><style>.cls-1{fill:#32424c;}</style></defs><title>calender_time</title><g id="Layer_2" data-name="Layer 2"><g id="Layer_1-2" data-name="Layer 1"><path class="cls-1" d="M3.26,1.61c0-.29,0-.53,0-.78A.81.81,0,1,1,4.88.8c0,.25,0,.49,0,.78h11.4c0-.24,0-.48,0-.72A.81.81,0,0,1,17.14,0a.82.82,0,0,1,.77.9c0,.22,0,.44,0,.71h1.22a1.86,1.86,0,0,1,2,2q0,7.76,0,15.51a1.84,1.84,0,0,1-2,2H2.05a1.84,1.84,0,0,1-2-2Q0,11.38,0,3.65a1.86,1.86,0,0,1,2.07-2ZM1.64,7.33c0,.13,0,.21,0,.29,0,3.82,0,7.64,0,11.46,0,.42.19.46.53.46H19c.52,0,.53,0,.53-.54q0-5.63,0-11.25c0-.13,0-.27,0-.41ZM16.29,3.27H4.89c0,.27,0,.51,0,.76A.84.84,0,0,1,4,4.87.84.84,0,0,1,3.26,4c0-.24,0-.48,0-.74-.48,0-.9,0-1.31,0-.12,0-.31.17-.31.27,0,.7,0,1.4,0,2.12H19.55c0-.73,0-1.43,0-2.12a.39.39,0,0,0-.28-.27c-.43,0-.87,0-1.35,0,0,.28,0,.51,0,.74a.81.81,0,1,1-1.62,0C16.27,3.78,16.29,3.54,16.29,3.27Z"/><path class="cls-1" d="M14.66,13a.81.81,0,1,1-.84-.8A.85.85,0,0,1,14.66,13Z"/><path class="cls-1" d="M8.14,13a.84.84,0,0,1-.85.78.82.82,0,0,1,.06-1.63A.85.85,0,0,1,8.14,13Z"/><path class="cls-1" d="M14.66,9.76a.84.84,0,0,1-.82.81.8.8,0,1,1,.82-.81Z"/><path class="cls-1" d="M9.78,13a.8.8,0,1,1,.8.83A.83.83,0,0,1,9.78,13Z"/><path class="cls-1" d="M17.08,12.2a.82.82,0,1,1-.79.84A.84.84,0,0,1,17.08,12.2Z"/><path class="cls-1" d="M8.14,9.76a.81.81,0,0,1-1.62,0A.82.82,0,0,1,7.32,9,.83.83,0,0,1,8.14,9.76Z"/><path class="cls-1" d="M4.11,12.2A.82.82,0,1,1,4,13.83a.82.82,0,0,1,.11-1.63Z"/><path class="cls-1" d="M4.88,16.27a.83.83,0,0,1-.81.81.8.8,0,1,1,.81-.81Z"/><path class="cls-1" d="M8.14,16.28a.81.81,0,1,1-.82-.8A.83.83,0,0,1,8.14,16.28Z"/><path class="cls-1" d="M11.39,9.75a.8.8,0,0,1-1.61,0A.8.8,0,0,1,10.57,9,.81.81,0,0,1,11.39,9.75Z"/><path class="cls-1" d="M17.91,9.77a.82.82,0,0,1-.83.8.8.8,0,1,1,.83-.8Z"/><path class="cls-1" d="M10.59,15.47a.8.8,0,1,1-.81.81A.8.8,0,0,1,10.59,15.47Z"/><path class="cls-1" d="M44.37,11.08a9.87,9.87,0,1,1-9.88-9.85A9.87,9.87,0,0,1,44.37,11.08Zm-18.26,0a8.39,8.39,0,1,0,8.4-8.39A8.42,8.42,0,0,0,26.11,11.1Z"/><path class="cls-1" d="M35,7.64c0,1.09,0,2.18,0,3.27,0,.56-.18.73-.74.74H29.24a1.33,1.33,0,0,1-.28,0,.54.54,0,0,1,0-1.06,2.19,2.19,0,0,1,.39,0c1.42,0,2.84,0,4.26,0,.27,0,.34-.08.34-.34,0-1.89,0-3.78,0-5.67a3.81,3.81,0,0,1,0-.39.52.52,0,0,1,.55-.51.51.51,0,0,1,.53.51c0,.12,0,.23,0,.35Q35,6.07,35,7.64Z"/></g></g></svg>