<svg xmlns="http://www.w3.org/2000/svg" viewBox="0 0 17.28 17.28"><defs><style>.cls-1{fill:#414042;}</style></defs><title>calendar</title><g id="Layer_2" data-name="Layer 2"><g id="Layer_1-2" data-name="Layer 1"><path class="cls-1" d="M2.66,1.31c0-.23,0-.43,0-.63A.66.66,0,1,1,4,.65c0,.2,0,.4,0,.63h9.3c0-.19,0-.39,0-.59A.66.66,0,0,1,14,0a.67.67,0,0,1,.63.73c0,.18,0,.36,0,.58h1A1.52,1.52,0,0,1,17.28,3q0,6.33,0,12.66a1.5,1.5,0,0,1-1.66,1.65H1.68A1.51,1.51,0,0,1,0,15.6Q0,9.29,0,3A1.52,1.52,0,0,1,1.69,1.31ZM1.34,6c0,.1,0,.17,0,.24,0,3.12,0,6.24,0,9.35,0,.34.15.38.43.38H15.53c.42,0,.43,0,.43-.44q0-4.59,0-9.19c0-.11,0-.22,0-.34Zm12-3.31H4c0,.22,0,.42,0,.62A.69.69,0,0,1,3.31,4a.69.69,0,0,1-.65-.73c0-.2,0-.39,0-.6-.4,0-.73,0-1.07,0-.09,0-.25.14-.25.22,0,.57,0,1.14,0,1.73H16c0-.59,0-1.16,0-1.73a.32.32,0,0,0-.22-.22c-.35,0-.71,0-1.1,0,0,.22,0,.41,0,.6a.66.66,0,1,1-1.33,0C13.28,3.09,13.29,2.89,13.29,2.67Z"/><path class="cls-1" d="M12,10.61a.66.66,0,1,1-.68-.65A.7.7,0,0,1,12,10.61Z"/><path class="cls-1" d="M6.64,10.65a.69.69,0,0,1-.69.64A.67.67,0,0,1,6,10,.69.69,0,0,1,6.64,10.65Z"/><path class="cls-1" d="M12,8a.69.69,0,0,1-.67.66A.66.66,0,1,1,12,8Z"/><path class="cls-1" d="M8,10.61a.66.66,0,1,1,.65.68A.68.68,0,0,1,8,10.61Z"/><path class="cls-1" d="M13.94,10a.67.67,0,1,1-.64.69A.69.69,0,0,1,13.94,10Z"/><path class="cls-1" d="M6.64,8A.66.66,0,0,1,5.32,8,.67.67,0,0,1,6,7.31.68.68,0,0,1,6.64,8Z"/><path class="cls-1" d="M3.36,10a.67.67,0,1,1-.09,1.33A.67.67,0,0,1,3.36,10Z"/><path class="cls-1" d="M4,13.28a.67.67,0,0,1-.66.66A.66.66,0,1,1,4,13.28Z"/><path class="cls-1" d="M6.64,13.29A.66.66,0,1,1,6,12.63.68.68,0,0,1,6.64,13.29Z"/><path class="cls-1" d="M9.3,8A.66.66,0,0,1,8,8a.66.66,0,0,1,.64-.68A.66.66,0,0,1,9.3,8Z"/><path class="cls-1" d="M14.62,8a.67.67,0,0,1-.68.65A.66.66,0,1,1,14.62,8Z"/><path class="cls-1" d="M8.64,12.63a.66.66,0,1,1-.66.66A.66.66,0,0,1,8.64,12.63Z"/></g></g></svg>