<svg xmlns="http://www.w3.org/2000/svg" viewBox="0 0 25.89 18.34"><defs><style>.cls-1{fill:#5f6f77;}</style></defs><title>camera-gray</title><g id="Layer_2" data-name="Layer 2"><g id="Layer_1-2" data-name="Layer 1"><path class="cls-1" d="M25.89,15.39c-.07.15-.16.3-.22.45A3.74,3.74,0,0,1,22,18.34H3.89c-2,0-3.19-1.17-3.89-2.95V5.21c.77-2.36,2.46-3.27,4.94-3-.26-1,.25-1.16,1-1.1a10.42,10.42,0,0,0,1.12,0c.71,0,1.25.1.93,1.07,1.14,0,2.2,0,3.26,0a1,1,0,0,0,.63-.43,3.55,3.55,0,0,0,.45-.92A1,1,0,0,1,13.5,0c1.41,0,2.82.06,4.22,0,.77,0,1.29.17,1.5.93.29,1,.94,1.33,2,1.23a4.08,4.08,0,0,1,4.68,3Zm-13,1.89c3,0,6,0,9.05,0A2.67,2.67,0,0,0,24.8,14.6q.08-4.35,0-8.71a2.61,2.61,0,0,0-2.74-2.62c-.75,0-1.5,0-2.24,0-.31,0-.8-.27-.87-.5C18.52,1.17,17.45.86,16,1.07a4.08,4.08,0,0,1-1.29,0,1.51,1.51,0,0,0-2,1.25c-.2.76-.71,1-1.49,1-2.41,0-4.83,0-7.24,0a2.71,2.71,0,0,0-3,3q0,4,0,7.93a2.77,2.77,0,0,0,3.1,3.08Z"/><path class="cls-1" d="M16.21,3.81a5.92,5.92,0,0,1-.06,11.85,5.92,5.92,0,1,1,.06-11.85Zm0,10.75a4.84,4.84,0,1,0-4.84-4.79A4.85,4.85,0,0,0,16.18,14.56Z"/><path class="cls-1" d="M5.38,9.71c0,1.66,0,3.33,0,5,0,.39.06.93-.52.87-.21,0-.53-.55-.53-.85q-.06-5,0-10c0-.31.3-.83.52-.87.58-.08.53.45.53.85C5.39,6.38,5.38,8,5.38,9.71Z"/><path class="cls-1" d="M16.22,13.49a3.78,3.78,0,1,1,0-7.55,3.78,3.78,0,0,1,0,7.55Zm2.64-3.75A2.65,2.65,0,0,0,16.2,7a2.69,2.69,0,0,0-2.71,2.67,2.74,2.74,0,0,0,2.68,2.72A2.7,2.7,0,0,0,18.86,9.74Z"/></g></g></svg>