<svg xmlns="http://www.w3.org/2000/svg" viewBox="0 0 41.14 41.37"><defs><style>.cls-1{fill:#5f6f77;}</style></defs><title>cash_inactive</title><g id="Layer_2" data-name="Layer 2"><g id="Layer_1-2" data-name="Layer 1"><path class="cls-1" d="M14.45,14.2,26.36,0l10,8.37-16,19-8.46-7.1,0-.05.59.18c1.22.39,2.45.77,3.66,1.18a2.84,2.84,0,0,0,3.72-3,2.73,2.73,0,0,0-1.44-2.15l-3.73-2.1Zm8.63-4.67a3.9,3.9,0,0,0-3.94,4.33,4.56,4.56,0,0,0,5.07,4,3.89,3.89,0,0,0,3.38-3.69A4.55,4.55,0,0,0,23.08,9.52Z"/><path class="cls-1" d="M40,37.69l-2.53.24-4.39.41c-.77.07-1.53.15-2.3.21a.42.42,0,0,1-.29-.18A3,3,0,0,0,28.45,37a7.22,7.22,0,0,0-1-.07c-2.15,0-4.31,0-6.46,0a6.81,6.81,0,0,1-4.15-1.27c-.85-.6-1.64-1.31-2.43-2-1.16-1-2.29-2-3.44-3a1.77,1.77,0,0,1,2.14-2.81C14.73,29,16.36,30.14,18,31.26a5.19,5.19,0,0,0,2.94.9c2.13,0,4.25,0,6.38,0a.56.56,0,0,0,.63-.52c0-.31-.24-.53-.61-.54H23.29a1.65,1.65,0,0,1-1.59-1.7,1.59,1.59,0,0,1,1.62-1.59c2.74,0,5.48,0,8.21,0a6.64,6.64,0,0,1,3.51.85,6.23,6.23,0,0,1,2,2.14,26.81,26.81,0,0,1,2.05,4.47l.82,2.13Z"/><path class="cls-1" d="M18.35,7.74,17.14,9.19l-2.66,3.18a.46.46,0,0,1-.41.19c-.36,0-.72,0-1.08,0a1,1,0,0,0-1,.73,1,1,0,0,0,.52,1.16l5.37,3a1.67,1.67,0,0,1,0,2.9,1.52,1.52,0,0,1-1.27.17q-3.13-1-6.25-2a4.54,4.54,0,0,1-1.92-1.35c-.19-.21-.39-.42-.6-.61a1.14,1.14,0,0,0-1.13-.26L4.12,17l-.29.06v-.29c0-2.57,0-5.13,0-7.7,0-.27.06-.38.34-.35A3.47,3.47,0,0,0,5.54,8.5l4.94-1.42a6.55,6.55,0,0,1,3-.18Z"/><path class="cls-1" d="M0,7.74H2.55V18.81H1Z"/><path class="cls-1" d="M30,41.37V39.86l11.1-1v2.54Z"/><path class="cls-1" d="M26.12,15.46l-.67.8c-.14-.11-.27-.2-.38-.31s-.21-.12-.36,0-.61.43-.94.65l-.74-1,.4-.2a2,2,0,0,0,.92-.84.4.4,0,0,0,0-.36A.45.45,0,0,0,24,14.1a6.44,6.44,0,0,0-.6.29,4.1,4.1,0,0,1-.92.35,1.33,1.33,0,0,1-1.54-1.66c.12-.47.05-.76-.36-1,0,0,0,0,0-.07l.65-.78.49.4.79-.54c.14-.1.24-.06.33.08s.36.51.52.74c-.31.23-.61.45-.89.68a.82.82,0,0,0-.23.32.35.35,0,0,0,0,.29.28.28,0,0,0,.26,0c.25-.1.48-.23.73-.34a4.58,4.58,0,0,1,.64-.28,1.45,1.45,0,0,1,1.82,1.82.63.63,0,0,0,.29.84Z"/></g></g></svg>