<svg xmlns="http://www.w3.org/2000/svg" viewBox="0 0 13 13"><defs><style>.cls-1{fill:#fff;stroke:#a7a9ac;stroke-miterlimit:10;}.cls-2{fill:#05679e;}</style></defs><title>checkbox-select</title><g id="Layer_2" data-name="Layer 2"><g id="Layer_1-2" data-name="Layer 1"><rect class="cls-1" x="0.5" y="0.5" width="12" height="12"/><path class="cls-2" d="M11.47,3.83a4.56,4.56,0,0,1-.29.37L5.4,10a.4.4,0,0,1-.67,0q-1.5-1.52-3-3a.4.4,0,0,1,0-.67c1-.94.69-.92,1.62,0,.46.44.91.89,1.34,1.35.28.31.49.29.78,0,1.49-1.51,3-3,4.49-4.51.32-.33.55-.37.84,0S11.23,3.58,11.47,3.83Z"/></g></g></svg>