<svg xmlns="http://www.w3.org/2000/svg" viewBox="0 0 82.69 39.73"><defs><style>.cls-1{fill:#5f6f77;}</style></defs><title>cheque_inactive</title><g id="Layer_2" data-name="Layer 2"><g id="Layer_1-2" data-name="Layer 1"><path class="cls-1" d="M82.69,39.73H0V0H82.69ZM3.32,3.27V36.44H79.39V3.27Z"/><path class="cls-1" d="M60,19.86v-2H6V16.59H76.32v1.22H61a10.34,10.34,0,0,0,.14,1.61c0,.17.41.37.63.38,1.18,0,2.37,0,3.55,0h11v1.26h-15l-.55,7.19,1.8.29c.16-.82-.18-1.73.74-2.36v2.29c.84-.54.58-1.21.61-1.78s.22-.87,1-.61l-.17,2.29.19,0,.7-2c.76.94.05,1.65.07,2.37.72,0,.83-.22.84-1.11,0-.54.06-1.08.09-1.62H67v2.64c1.26-.5,2.41-.92,3.52-1.4.2-.09.28-.43.43-.64.68-1,1.35-1.92,2.08-2.84a.79.79,0,0,1,.74-.18.9.9,0,0,1,.29.73,3.15,3.15,0,0,1-1.59,2.49,2.2,2.2,0,0,0-1.06,1.85c0,.19-.06.37-.09.56-.22,1.71-.16,1.82,1.36,2.5l-1.17-.11c-.24.62.12.68.59.68h4.24l.08.84H71.82c-.26.66.66,1.2.06,1.81-.09,0-.17-.07-.17-.1-.36-1.56-1.41-1.77-2.84-1.71-2.5.11-5,0-7.51,0-3,0-6,0-9,0-.59,0-.88-.19-1-.88H60l-.86-2.31a10.16,10.16,0,0,1-5.14,1,8.3,8.3,0,0,0,4.82-1.7l-2-2.29,3,1c.85-2.35.21-4.66.36-7H6.06V19.86Zm.34,12.46h9.4l-.36-.84.94-.28V28c-1.44.49-2.79,1-4.16,1.39a1.08,1.08,0,0,1-.76,0,1.9,1.9,0,0,0-1.75-.27,1.21,1.21,0,0,1-.62-.07l-2.5-.54Z"/><path class="cls-1" d="M63.71,5.27H74.28c1.85,0,2.48.63,2.47,2.45,0,.65,0,1.29,0,1.94a1.87,1.87,0,0,1-1.91,2c-.88.05-1.77,0-2.66,0h-19c-1.87,0-2.53-.66-2.53-2.51q0-.73,0-1.45c0-1.83.65-2.5,2.46-2.5H63.71Zm.09.81H53.14c-1.44,0-1.72.27-1.72,1.68q0,.69,0,1.37c0,1.51.28,1.78,1.79,1.78H73.15c.51,0,1,0,1.53,0,.9-.05,1.24-.42,1.25-1.32,0-.62,0-1.24,0-1.86,0-1.39-.24-1.64-1.65-1.65Z"/><path class="cls-1" d="M41.31,24v1.2H6.06V24Z"/><path class="cls-1" d="M12.52,13.62v1.17H6.05V13.62Z"/><path class="cls-1" d="M76.35,13.6v1.18H69.87V13.6Z"/><path class="cls-1" d="M73.75,8.87v.87H53.33V8.87Z"/></g></g></svg>