<svg xmlns="http://www.w3.org/2000/svg" viewBox="0 0 60.89 38.06"><defs><style>.cls-1{fill:#5f6f77;}</style></defs><title>creditcard_inactive</title><g id="Layer_2" data-name="Layer 2"><g id="Layer_1-2" data-name="Layer 1"><path class="cls-1" d="M0,35.08V3c.07-.16.16-.31.21-.47A3.73,3.73,0,0,1,3.76,0H57.13a3.73,3.73,0,0,1,3.54,2.5c.06.16.14.31.21.47V35.08c-.08.17-.16.35-.23.53a3.75,3.75,0,0,1-3.53,2.45H3.76a3.73,3.73,0,0,1-3.54-2.5C.16,35.39.07,35.24,0,35.08Zm3.83-.87H57v-19H3.83Zm0-26.64H57V3.84H3.83Z"/><path class="cls-1" d="M43.74,18.58a5.73,5.73,0,1,1,0,8.56A5.64,5.64,0,0,1,39,28.51a5.53,5.53,0,0,1-3.55-2.07,5.73,5.73,0,0,1,8.29-7.85Z"/><path class="cls-1" d="M7.61,28.54V24.8h7.54v3.73Z"/><path class="cls-1" d="M26.59,24.81v3.73H19.05V24.81Z"/></g></g></svg>