<svg xmlns="http://www.w3.org/2000/svg" viewBox="0 0 16.74 22.34"><defs><style>.cls-1{fill:#fff;}</style></defs><title>delete</title><g id="Layer_2" data-name="Layer 2"><g id="Layer_1-2" data-name="Layer 1"><path class="cls-1" d="M8.38,22.34h-4a1.64,1.64,0,0,1-1.53-.9,1.35,1.35,0,0,1-.17-.5c-.09-.88-.15-1.77-.23-2.65s-.18-2-.26-3.06C2.1,14.6,2.07,14,2,13.33c-.09-1-.18-2.07-.27-3.11C1.68,9.48,1.63,8.74,1.57,8s-.13-1.62-.19-2.44c0-.56-.1-1.11-.15-1.66,0-.14-.06-.19-.2-.19s-.55,0-.83,0S0,3.67,0,3.51s0-.26,0-.39,0-.24.23-.24H4.45c.16,0,.22-.06.21-.22,0-.34,0-.69,0-1A1.68,1.68,0,0,1,5.82.09,1.78,1.78,0,0,1,6.4,0h3.93a1.69,1.69,0,0,1,1.6,1,1.41,1.41,0,0,1,.13.53c0,.36,0,.72,0,1.08s0,.27.27.27h4.14c.25,0,.25,0,.25.26a3.32,3.32,0,0,0,0,.37c0,.18-.06.22-.22.21s-.5,0-.75,0-.22,0-.24.21c-.09,1.22-.2,2.44-.29,3.66,0,.62-.08,1.23-.13,1.85-.09,1.16-.19,2.32-.29,3.48-.07.84-.13,1.67-.2,2.51-.1,1.18-.2,2.36-.29,3.53,0,.6-.07,1.21-.13,1.81a1.69,1.69,0,0,1-1.7,1.56Zm0-18.62H2.23c-.13,0-.19,0-.17.19s.05.4.07.6q.1,1.14.19,2.29c.08,1,.15,2,.23,3,.06.82.13,1.64.2,2.45q.16,1.92.31,3.84c.06.71.13,1.43.19,2.14s.14,1.71.21,2.56a.47.47,0,0,0,0,.16.89.89,0,0,0,.88.53h8a.9.9,0,0,0,.95-.85c.06-.79.12-1.57.18-2.36l.2-2.47c.07-.85.14-1.71.21-2.56.09-1.12.17-2.25.26-3.37.06-.72.12-1.44.18-2.16s.09-1.22.14-1.83.11-1.28.16-1.92c0-.25,0-.26-.24-.26Zm0-.83H11c.17,0,.23-.05.23-.22s0-.63,0-.94a.86.86,0,0,0-.87-.89q-2,0-4,0a.85.85,0,0,0-.87.9c0,.3,0,.6,0,.9s0,.25.25.25Z"/><path class="cls-1" d="M12.05,6.34q-.1,2.4-.2,4.79t-.2,4.57c-.06,1.24-.12,2.47-.18,3.71,0,.15-.06.21-.21.2s-.24,0-.37,0-.26,0-.25-.26c0-.43,0-.87.05-1.3q.08-1.74.15-3.47c.06-1.22.12-2.45.17-3.67s.1-2.5.15-3.75c0-.45.06-.9.08-1.36,0-.15.06-.21.21-.19a2.54,2.54,0,0,0,.42,0c.14,0,.2,0,.2.19s0,.37,0,.55Z"/><path class="cls-1" d="M6.1,19c0,.17,0,.3,0,.43s0,.23-.21.21a2.24,2.24,0,0,0-.4,0c-.16,0-.21-.05-.22-.21,0-1-.08-2-.13-3q-.1-2.3-.2-4.61t-.2-4.41c0-.53,0-1.05-.08-1.58,0-.17,0-.25.23-.23a1.66,1.66,0,0,0,.39,0c.17,0,.21.05.22.21q.05,1.36.11,2.72c.09,1.89.19,3.78.28,5.67.05,1.12.08,2.24.13,3.36C6,18,6.07,18.52,6.1,19Z"/><path class="cls-1" d="M8,12.61Q8,9.25,8,5.9c0-.29,0-.3.3-.29h.2c.28,0,.28,0,.28.27q0,6.72,0,13.44c0,.28,0,.29-.29.29-.54,0-.49.1-.49-.5Q8,15.85,8,12.61Z"/></g></g></svg>