<svg xmlns="http://www.w3.org/2000/svg" viewBox="0 0 6.37 13"><defs><style>.cls-1{fill:#32424c;}</style></defs><title>dollar-bold</title><g id="Layer_2" data-name="Layer 2"><g id="Layer_1-2" data-name="Layer 1"><path class="cls-1" d="M5,9a1.43,1.43,0,0,0-.43-1,3.76,3.76,0,0,0-1.44-.78A5,5,0,0,1,1.06,6.06,2.5,2.5,0,0,1,.36,4.2,2.62,2.62,0,0,1,1,2.37a2.8,2.8,0,0,1,1.78-.85V0H3.87V1.52a2.62,2.62,0,0,1,1.77.94,3.27,3.27,0,0,1,.63,2.11H4.94a2.19,2.19,0,0,0-.43-1.41,1.44,1.44,0,0,0-1.19-.54A1.6,1.6,0,0,0,2.11,3a1.6,1.6,0,0,0-.4,1.15,1.44,1.44,0,0,0,.42,1.07A4.09,4.09,0,0,0,3.62,6,5.17,5.17,0,0,1,5.69,7.16,2.46,2.46,0,0,1,6.37,9a2.5,2.5,0,0,1-.7,1.87,3.13,3.13,0,0,1-1.93.82V13H2.65V11.69a3.13,3.13,0,0,1-1.93-.86A2.8,2.8,0,0,1,0,8.67v0h1.3a1.86,1.86,0,0,0,.53,1.5,2,2,0,0,0,1.3.45,2.07,2.07,0,0,0,1.38-.42A1.45,1.45,0,0,0,5,9Z"/></g></g></svg>