<svg xmlns="http://www.w3.org/2000/svg" viewBox="0 0 18.81 18.79"><defs><style>.cls-1{fill:#fff;}</style></defs><title>edit_1</title><g id="Layer_2" data-name="Layer 2"><g id="Layer_1-2" data-name="Layer 1"><path class="cls-1" d="M9.54,4.58A2,2,0,0,1,9.43,4a.82.82,0,0,1,.24-.44c.53-.55,1.08-1.09,1.62-1.63s.58-.45,1.11-.18L13.75.4A1.28,1.28,0,0,1,14.49,0,1.31,1.31,0,0,1,15.66.4L17.3,2l1.08,1.08a1.31,1.31,0,0,1,0,1.94l-1.3,1.31,0,0,0,.08a.65.65,0,0,1-.08.86L15.2,9.16c-.28.28-.55.29-1,0-.23.24-.46.5-.71.75L5.45,18a1.21,1.21,0,0,1-.81.37c-.83.06-1.66.1-2.48.18-.52,0-1,.14-1.56.21l-.2,0c-.28,0-.43-.12-.4-.4s.13-.84.17-1.26c.09-.88.16-1.76.23-2.65,0-.16,0-.32,0-.47a1,1,0,0,1,.32-.62L6.37,7.8,9.51,4.67l.09-.1Zm.53.5L1.54,13.64c.4.08.83.16,1.25.25a.35.35,0,0,0,.37-.11L6.89,10l.62-.62a.32.32,0,0,1,.47,0,.32.32,0,0,1,0,.46l-.09.1L3.63,14.22a.46.46,0,0,0-.13.41.6.6,0,0,0,.66.65.46.46,0,0,0,.41-.13L9.74,10l.12-.11a.32.32,0,0,1,.46.45l-.11.13L5.05,15.59a.41.41,0,0,0-.14.48,1.68,1.68,0,0,1,.05.27l.21,1,8.57-8.61Zm6.46,1.85L11.88,2.26c-.1.11-.23.23-.35.36a.16.16,0,0,0,0,.14.34.34,0,0,1-.08.42L11,3.59a.35.35,0,0,1-.43.08s-.09,0-.1,0l-.4.4,4.65,4.65c.12-.13.25-.26.37-.4a.16.16,0,0,0,0-.13.35.35,0,0,1,.08-.4l.43-.43a.34.34,0,0,1,.4-.08.17.17,0,0,0,.14,0C16.3,7.15,16.43,7,16.54,6.92Zm0-1,0,0L18,4.53a.65.65,0,0,0,0-.93L15.18.85a.67.67,0,0,0-1,0l-.55.55-.8.78Zm-12,11.8a.62.62,0,0,0,0-.1c-.1-.52-.2-1-.32-1.56a.21.21,0,0,0-.14-.11c-.22-.05-.45-.1-.68-.13A.44.44,0,0,1,3,15.39c0-.22-.09-.44-.13-.66a.19.19,0,0,0-.17-.18l-1-.2-.55-.11a.37.37,0,0,0,0,.07C1,15.08,1,15.85.9,16.63a.21.21,0,0,0,.06.15L2,17.83a.24.24,0,0,0,.16.06L4,17.75Z"/><path class="cls-1" d="M9.93,7.85a1,1,0,0,1-.13.2l-.89.88a.33.33,0,1,1-.46-.46l.9-.9a.31.31,0,0,1,.37-.08A.35.35,0,0,1,9.93,7.85Z"/><path class="cls-1" d="M12.75,4.06a1.49,1.49,0,0,1-.15.26c-.14.15-.29.3-.44.44a.33.33,0,0,1-.47,0,.32.32,0,0,1,0-.47q.22-.24.47-.47a.28.28,0,0,1,.36-.05A1.47,1.47,0,0,1,12.75,4.06Z"/><path class="cls-1" d="M15.07,6.38a1.48,1.48,0,0,1-.15.27c-.14.15-.29.3-.44.44a.32.32,0,0,1-.48,0,.33.33,0,0,1,0-.47l.46-.45a.28.28,0,0,1,.36-.06A1.49,1.49,0,0,1,15.07,6.38Z"/><path class="cls-1" d="M13.91,5.22a1.56,1.56,0,0,1-.15.26c-.14.15-.28.29-.43.43a.33.33,0,1,1-.47-.46L13.32,5a.28.28,0,0,1,.36,0A1.38,1.38,0,0,1,13.91,5.22Z"/></g></g></svg>