<svg xmlns="http://www.w3.org/2000/svg" viewBox="0 0 16.14 16.14"><defs><style>.cls-1{fill:#027cce;}</style></defs><title>edit</title><g id="Layer_2" data-name="Layer 2"><g id="Layer_1-2" data-name="Layer 1"><path class="cls-1" d="M8.07,14.87h4.21a2.47,2.47,0,0,0,2.6-2.57c0-.71,0-1.42,0-2.13,0-.53.26-.84.64-.83s.63.31.61.81a19.14,19.14,0,0,1-.23,3.39,3.54,3.54,0,0,1-3.42,2.6c-2.94,0-5.88,0-8.82,0A3.72,3.72,0,0,1,0,12.51Q0,8.08,0,3.64A3.74,3.74,0,0,1,3.67,0C4.46,0,5.25,0,6,0c.5,0,.79.26.78.64s-.3.61-.8.62H3.89a2.48,2.48,0,0,0-2.6,2.57q0,4.23,0,8.47a2.46,2.46,0,0,0,2.57,2.55Z"/><path class="cls-1" d="M13.88.18a2.14,2.14,0,0,1,1.94,1.29,2,2,0,0,1-.36,2.39C14.23,5.16,13,6.4,11.69,7.66c-.83.83-1.65,1.66-2.5,2.47a1.85,1.85,0,0,1-.7.43c-.91.28-1.84.53-2.76.78-.69.18-1.07-.19-.89-.88Q5.23,9,5.66,7.55A1.24,1.24,0,0,1,6,7.06L12.1.94A2.39,2.39,0,0,1,13.88.18ZM8.64,9A4.8,4.8,0,0,1,9,8.53l5.11-5.11c.64-.64.73-1.23.27-1.67s-1-.33-1.63.28l-5,5c-.19.19-.42.35-.64.53Zm-2.36.87.94-.26-.65-.75Z"/></g></g></svg>