<svg xmlns="http://www.w3.org/2000/svg" viewBox="0 0 28.53 19.22"><defs><style>.cls-1{fill:#05679e;}</style></defs><title>paynow</title><g id="Layer_2" data-name="Layer 2"><g id="Layer_1-2" data-name="Layer 1"><path class="cls-1" d="M14.62,18.56c-1.87.9-2.85.42-3.36-1.71C8.12,19.22,4.53,18.14,1.1,18.23a1,1,0,0,1-1-1.12C0,14.34,0,11.56,0,8.78A1.63,1.63,0,0,1,.52,7.72c1.87-1.7,3.7-3.45,5.71-5C7,2.21,8.16,2.27,9.3,2c0,.15,0,0,0-.09C9.42.51,9.93,0,11.37,0Q19,0,26.6,0c1.33,0,1.92.62,1.92,2q0,4.93,0,9.87c0,1.4-.57,2-2,2H19.17c.51,1.89-.75,3.17-1.49,4.59C17.11,19.47,15.89,19.46,14.62,18.56Zm.84-9.11-.24-.23a7.82,7.82,0,0,0-1.28.28c-1.18.47-2.35,1-3.52,1.5s-1.65.19-1.66-1c0-1.72,0-3.45,0-5.17,0-.71-.32-.94-.92-.83a2,2,0,0,0-.91.45c-1.15,1-2.2,2.06-3.41,2.93a3.9,3.9,0,0,0-1.78,3.87c.15,1.7,0,3.42,0,5.15,2.22,0,4.32,0,6.42,0a1.61,1.61,0,0,0,1-.34c1.85-1.65,3.69-3.32,5.47-5A5.66,5.66,0,0,0,15.46,9.46Zm.33,3.24c3.74,0,7.34,0,10.94,0a.93.93,0,0,0,.68-.6c.05-1.84,0-3.69,0-5.55H10.6V8.84c.38-.15.66-.27,1-.36a28.93,28.93,0,0,1,2.91-.94c2.07-.46,3.24.91,2.5,2.9A20.38,20.38,0,0,1,15.79,12.7ZM10.47,3.11h16.9c.25-1.9.16-2-1.61-2H20.4c-3,0-5.93,0-8.89,0-.84,0-1.18.31-1.09,1.13C10.45,2.5,10.45,2.78,10.47,3.11Zm4.86,11.54c-.2-.25-.34-.59-.54-.63a.93.93,0,0,0-.81.26,21.91,21.91,0,0,0-1.35,2.61.9.9,0,0,0,.3.78.77.77,0,0,0,.75-.06C14.26,16.67,14.77,15.69,15.33,14.65Zm2.91.18c-.23-.26-.38-.54-.6-.63a.73.73,0,0,0-.68.13c-.53.94-1,1.9-1.47,2.88-.07.16.15.55.34.69s.62.09.69,0C17.12,16.9,17.65,15.89,18.24,14.83Z"/><path class="cls-1" d="M26.15,10.24v1.35H21.89V10.24Z"/></g></g></svg>