<svg xmlns="http://www.w3.org/2000/svg" viewBox="0 0 16.87 20.92"><defs><style>.cls-1{fill:#05679e;}</style></defs><title>pdf</title><g id="Layer_2" data-name="Layer 2"><g id="Layer_1-2" data-name="Layer 1"><path class="cls-1" d="M0,10.27q0-4.5,0-9C0,1.11,0,1,0,.81.07.19.25,0,.87,0h11a.74.74,0,0,1,.48.18C13.55,1.45,14.77,2.73,16,4c0,0,0,.05.05.06.76.45.77,1.16.76,1.94,0,2.19,0,4.38,0,6.57,0,1.36,0,2.73,0,4.09,0,1.2,0,2.39-.07,3.59,0,.49-.19.66-.69.66H.7c-.47,0-.6-.11-.62-.57C0,19.73,0,19.12,0,18.5,0,15.76,0,13,0,10.27Zm1.34.19c0,2.87,0,5.73,0,8.6,0,.35,0,.55.49.55q6.59,0,13.18,0c.37,0,.47-.11.47-.47q0-6.41,0-12.81c0-.43-.15-.54-.55-.53-1,0-2.09,0-3.14,0-.56,0-.56,0-.56-.58,0-1.09,0-2.18,0-3.27,0-.58,0-.61-.61-.61H1.93c-.59,0-.6,0-.6.61Q1.34,6.2,1.34,10.46ZM14.78,5l.1-.19L12.16,2c-.07.15-.12.21-.12.27,0,.81,0,1.62,0,2.44a.43.43,0,0,0,.31.28C13.16,5,14,5,14.78,5Z"/><path class="cls-1" d="M7.94,14.82c-1.43,0-2.86,0-4.3,0-.38,0-.54-.09-.53-.5,0-1-.08-.84.84-.84,2.77,0,5.53,0,8.3,0,.41,0,.52.13.51.52,0,.93.08.83-.81.83Z"/><path class="cls-1" d="M8.44,8.6c1.61,0,3.22,0,4.83,0,.37,0,.51.11.46.47a2.55,2.55,0,0,0,0,.41c0,.23-.11.32-.33.32H3.69c-.18,0-.51-.08-.52-.17a2.79,2.79,0,0,1,0-.93s.27-.09.41-.09Z"/><path class="cls-1" d="M7.16,11.07c1.23,0,2.45,0,3.68,0,.33,0,.43.11.43.43,0,1,.1.85-.83.85-2.26,0-4.52,0-6.77,0-.42,0-.59-.13-.53-.54a.94.94,0,0,0,0-.25c0-.37.09-.51.48-.5C4.79,11.09,6,11.07,7.16,11.07Z"/><path class="cls-1" d="M6,16c.78,0,1.57,0,2.35,0,.37,0,.51.08.5.48,0,1,.08.85-.87.85-.58,0-1.15,0-1.73,0-.93,0-1.86-.09-2.79-.12-.24,0-.33-.11-.35-.35C3.07,16,3.06,16,3.91,16Z"/></g></g></svg>