<svg xmlns="http://www.w3.org/2000/svg" viewBox="0 0 13.08 8.56"><defs><style>.cls-1{fill:#32424c;}</style></defs><title>total-sum</title><g id="Layer_2" data-name="Layer 2"><g id="Layer_1-2" data-name="Layer 1"><path class="cls-1" d="M6.92,4.55l-.44-.5L4,1.2A.54.54,0,0,1,3.8.74a2,2,0,0,0,0-.26H9.33V2.16L9,2.06A.14.14,0,0,1,9,2a1.75,1.75,0,0,1-.07-.21.78.78,0,0,0-.82-.6c-.84,0-1.68,0-2.52,0l-.06,0,2.36,3L5.52,7.31h2.8a.81.81,0,0,0,.91-.71.11.11,0,0,1,.06-.08l.32-.09V8.12H3.68a3.37,3.37,0,0,1,0-.36.27.27,0,0,1,.09-.13l3-2.89Z"/><path class="cls-1" d="M0,4.25A5.52,5.52,0,0,1,.64,1.49,3.4,3.4,0,0,1,2,0h0l.19.55A3.24,3.24,0,0,0,1.3,1.9,6,6,0,0,0,.91,4.24v.08A6,6,0,0,0,1.3,6.66,3.45,3.45,0,0,0,2.25,8l-.19.53H2A3.41,3.41,0,0,1,.64,7.07,5.53,5.53,0,0,1,0,4.31Z"/><path class="cls-1" d="M13.08,4.31a5.45,5.45,0,0,1-.66,2.75A3.45,3.45,0,0,1,11,8.56h0L10.8,8a3.28,3.28,0,0,0,.94-1.36,6.09,6.09,0,0,0,.39-2.35V4.24a5.92,5.92,0,0,0-.41-2.34A3.54,3.54,0,0,0,10.8.53L11,0h0a3.44,3.44,0,0,1,1.41,1.5,5.45,5.45,0,0,1,.66,2.75Z"/></g></g></svg>